<?xml version="1.0" encoding="UTF-8" standalone="no"?>
<svg
   enable-background="new 0 0 512 512"
   version="1.1"
   viewBox="0 0 512 512"
   xml:space="preserve"
   id="svg208"
   sodipodi:docname="4544852_business_comerce_delivery_shop_icon.svg"
   inkscape:version="1.2.1 (9c6d41e410, 2022-07-14)"
   xmlns:inkscape="http://www.inkscape.org/namespaces/inkscape"
   xmlns:sodipodi="http://sodipodi.sourceforge.net/DTD/sodipodi-0.dtd"
   xmlns="http://www.w3.org/2000/svg"
   xmlns:svg="http://www.w3.org/2000/svg"><defs
     id="defs212" /><sodipodi:namedview
     id="namedview210"
     pagecolor="#ffffff"
     bordercolor="#000000"
     borderopacity="0.25"
     inkscape:showpageshadow="2"
     inkscape:pageopacity="0.0"
     inkscape:pagecheckerboard="0"
     inkscape:deskcolor="#d1d1d1"
     showgrid="false"
     inkscape:zoom="1.6347656"
     inkscape:cx="256.30586"
     inkscape:cy="256.30586"
     inkscape:window-width="1920"
     inkscape:window-height="1017"
     inkscape:window-x="-8"
     inkscape:window-y="-8"
     inkscape:window-maximized="1"
     inkscape:current-layer="svg208" /><g
     id="Layer_1" /><g
     id="Layer_2"
     style="fill:#ffd5d5"><g
       id="g205"
       style="fill:#ffd5d5"><path
         d="M88.4,203C88.4,203.1,88.4,203.1,88.4,203c0.2,19.4,11.2,36.2,27.4,44.5v174c0,4.1,3.4,7.5,7.5,7.5h162.1h60.4h42.9    c4.1,0,7.5-3.4,7.5-7.5v-174c16.1-8.4,27.2-25.2,27.4-44.5c0,0,0,0,0,0c0-0.1,0-0.3,0-0.4c0,0,0-0.1,0-0.1c0-0.2,0-0.3,0-0.5    c0-0.1,0-0.2,0-0.3c0-0.1,0-0.3-0.1-0.4c0-0.1,0-0.2-0.1-0.4c0-0.1-0.1-0.2-0.1-0.3c0-0.1-0.1-0.3-0.1-0.4c0-0.1-0.1-0.2-0.1-0.3    c-0.1-0.2-0.1-0.3-0.2-0.4c0,0,0-0.1,0-0.1l-31.9-67.6v-25.7c0-12.8-10.4-23.3-23.3-23.3H144c-12.8,0-23.3,10.4-23.3,23.3v26.3    l-31.6,67c0,0,0,0.1,0,0.1c-0.1,0.1-0.1,0.3-0.2,0.4c0,0.1-0.1,0.2-0.1,0.3c0,0.1-0.1,0.3-0.1,0.4c0,0.1-0.1,0.2-0.1,0.3    c0,0.1,0,0.2-0.1,0.4c0,0.1,0,0.3-0.1,0.4c0,0.1,0,0.2,0,0.3c0,0.2,0,0.3,0,0.5c0,0,0,0.1,0,0.1C88.4,202.8,88.4,202.9,88.4,203z     M133.3,141h55.5l-12.5,54.1h-68.6L133.3,141z M307.8,141l12.5,54.1h-56.8V141H307.8z M404.2,195.1h-68.6L323.2,141h55.5    L404.2,195.1z M326,220.1c-6.3,11.1-18.2,18.2-31.1,18.2c-13.2,0-25.3-7.4-31.5-19v-9.1h60.2L326,220.1z M188.3,210.1h60.2v9.1    c-6.1,11.6-18.3,19-31.5,19c-12.9,0-24.8-7.1-31.1-18.2L188.3,210.1z M248.5,195.1h-56.8l12.5-54.1h44.3V195.1z M104.2,210.1h68.6    l-1.9,8.4c-6,12-18.4,19.8-31.9,19.8C122,238.3,107.7,226.2,104.2,210.1z M292.9,414.1v-72.9c0-0.9,0.7-1.6,1.6-1.6h42.3    c0.9,0,1.6,0.7,1.6,1.6v72.9H292.9z M381.2,414.1h-27.9v-72.9c0-9.1-7.4-16.6-16.6-16.6h-42.3c-9.1,0-16.6,7.4-16.6,16.6v72.9    H130.8V252.6c2.7,0.4,5.4,0.7,8.3,0.7c15.2,0,29.5-6.9,39-18.4c9.5,11.4,23.8,18.4,39,18.4s29.5-6.9,39-18.4    c9.5,11.4,23.8,18.4,39,18.4s29.5-6.9,39-18.4c9.5,11.4,23.8,18.4,39,18.4c2.8,0,5.6-0.2,8.3-0.7V414.1z M372.9,238.3    c-13.5,0-25.9-7.7-31.9-19.8l-1.9-8.4h68.6C404.3,226.2,390,238.3,372.9,238.3z M135.8,106.2c0-4.5,3.7-8.3,8.3-8.3h223.7    c4.5,0,8.3,3.7,8.3,8.3V126H135.8V106.2z"
         id="path201"
         style="fill:#ffd5d5" /><path
         d="M237.8,272.6h-81.3c-4.1,0-7.5,3.4-7.5,7.5v65c0,4.1,3.4,7.5,7.5,7.5h81.3c4.1,0,7.5-3.4,7.5-7.5v-65    C245.3,275.9,241.9,272.6,237.8,272.6z M230.3,305.1h-25.7v-17.5h25.7V305.1z M189.6,287.6v17.5H164v-17.5H189.6z M164,320.1h25.7    v17.5H164V320.1z M204.6,337.6v-17.5h25.7v17.5H204.6z"
         id="path203"
         style="fill:#ffd5d5" /></g></g></svg>
