<?xml version="1.0" encoding="UTF-8" standalone="no"?>
<!-- Created with Inkscape (http://www.inkscape.org/) -->

<svg
   width="210mm"
   height="297mm"
   viewBox="0 0 210 297"
   version="1.1"
   id="svg5"
   xml:space="preserve"
   inkscape:export-filename="Fondo.svg"
   inkscape:export-xdpi="96"
   inkscape:export-ydpi="96"
   xmlns:inkscape="http://www.inkscape.org/namespaces/inkscape"
   xmlns:sodipodi="http://sodipodi.sourceforge.net/DTD/sodipodi-0.dtd"
   xmlns="http://www.w3.org/2000/svg"
   xmlns:svg="http://www.w3.org/2000/svg"><sodipodi:namedview
     id="namedview7"
     pagecolor="#ffffff"
     bordercolor="#000000"
     borderopacity="0.25"
     inkscape:showpageshadow="2"
     inkscape:pageopacity="0.0"
     inkscape:pagecheckerboard="0"
     inkscape:deskcolor="#d1d1d1"
     inkscape:document-units="mm"
     showgrid="false" /><defs
     id="defs2" /><g
     inkscape:label="Capa 1"
     inkscape:groupmode="layer"
     id="layer1"><g
       id="g30"
       transform="matrix(0.26458333,0,0,0.26458333,35.524733,26.325384)"><g
         id="Layer_1" /><g
         id="Layer_2"
         style="fill:#ffd5d5"><g
           id="g205"
           style="fill:#ffd5d5"><path
             d="m 88.4,203 c 0,0.1 0,0.1 0,0 0.2,19.4 11.2,36.2 27.4,44.5 v 174 c 0,4.1 3.4,7.5 7.5,7.5 h 162.1 60.4 42.9 c 4.1,0 7.5,-3.4 7.5,-7.5 v -174 c 16.1,-8.4 27.2,-25.2 27.4,-44.5 0,0 0,0 0,0 0,-0.1 0,-0.3 0,-0.4 0,0 0,-0.1 0,-0.1 0,-0.2 0,-0.3 0,-0.5 0,-0.1 0,-0.2 0,-0.3 0,-0.1 0,-0.3 -0.1,-0.4 0,-0.1 0,-0.2 -0.1,-0.4 0,-0.1 -0.1,-0.2 -0.1,-0.3 0,-0.1 -0.1,-0.3 -0.1,-0.4 0,-0.1 -0.1,-0.2 -0.1,-0.3 -0.1,-0.2 -0.1,-0.3 -0.2,-0.4 0,0 0,-0.1 0,-0.1 L 391,131.8 V 106.1 C 391,93.3 380.6,82.8 367.7,82.8 H 144 c -12.8,0 -23.3,10.4 -23.3,23.3 v 26.3 l -31.6,67 c 0,0 0,0.1 0,0.1 -0.1,0.1 -0.1,0.3 -0.2,0.4 0,0.1 -0.1,0.2 -0.1,0.3 0,0.1 -0.1,0.3 -0.1,0.4 0,0.1 -0.1,0.2 -0.1,0.3 0,0.1 0,0.2 -0.1,0.4 0,0.1 0,0.3 -0.1,0.4 0,0.1 0,0.2 0,0.3 0,0.2 0,0.3 0,0.5 0,0 0,0.1 0,0.1 0,0.2 0,0.3 0,0.4 z m 44.9,-62 h 55.5 l -12.5,54.1 h -68.6 z m 174.5,0 12.5,54.1 H 263.5 V 141 Z m 96.4,54.1 H 335.6 L 323.2,141 h 55.5 z m -78.2,25 c -6.3,11.1 -18.2,18.2 -31.1,18.2 -13.2,0 -25.3,-7.4 -31.5,-19 v -9.1 h 60.2 z m -137.7,-10 h 60.2 v 9.1 c -6.1,11.6 -18.3,19 -31.5,19 -12.9,0 -24.8,-7.1 -31.1,-18.2 z m 60.2,-15 H 191.7 L 204.2,141 h 44.3 z m -144.3,15 h 68.6 l -1.9,8.4 c -6,12 -18.4,19.8 -31.9,19.8 -17,0 -31.3,-12.1 -34.8,-28.2 z m 188.7,204 v -72.9 c 0,-0.9 0.7,-1.6 1.6,-1.6 h 42.3 c 0.9,0 1.6,0.7 1.6,1.6 v 72.9 z m 88.3,0 h -27.9 v -72.9 c 0,-9.1 -7.4,-16.6 -16.6,-16.6 h -42.3 c -9.1,0 -16.6,7.4 -16.6,16.6 v 72.9 h -147 V 252.6 c 2.7,0.4 5.4,0.7 8.3,0.7 15.2,0 29.5,-6.9 39,-18.4 9.5,11.4 23.8,18.4 39,18.4 15.2,0 29.5,-6.9 39,-18.4 9.5,11.4 23.8,18.4 39,18.4 15.2,0 29.5,-6.9 39,-18.4 9.5,11.4 23.8,18.4 39,18.4 2.8,0 5.6,-0.2 8.3,-0.7 v 161.5 z m -8.3,-175.8 c -13.5,0 -25.9,-7.7 -31.9,-19.8 l -1.9,-8.4 h 68.6 c -3.4,16.1 -17.7,28.2 -34.8,28.2 z M 135.8,106.2 c 0,-4.5 3.7,-8.3 8.3,-8.3 h 223.7 c 4.5,0 8.3,3.7 8.3,8.3 V 126 H 135.8 Z"
             id="path201"
             style="fill:#ffd5d5" /><path
             d="m 237.8,272.6 h -81.3 c -4.1,0 -7.5,3.4 -7.5,7.5 v 65 c 0,4.1 3.4,7.5 7.5,7.5 h 81.3 c 4.1,0 7.5,-3.4 7.5,-7.5 v -65 c 0,-4.2 -3.4,-7.5 -7.5,-7.5 z m -7.5,32.5 h -25.7 v -17.5 h 25.7 z m -40.7,-17.5 v 17.5 H 164 V 287.6 Z M 164,320.1 h 25.7 v 17.5 H 164 Z m 40.6,17.5 v -17.5 h 25.7 v 17.5 z"
             id="path203"
             style="fill:#ffd5d5" /></g></g></g><g
       transform="matrix(0.01095148,0,0,-0.00934687,48.871924,202.56498)"
       id="g16"
       style="fill:#ffd5d5"><path
         d="m 3422.6,5002.7 c -23,-7.7 -49.8,-26.8 -59.4,-40.3 -11.5,-15.3 -563.6,-1832.7 -1225,-4041.1 -981.6,-3276.2 -1200.1,-4023.9 -1186.7,-4064.2 34.5,-97.8 99.7,-97.8 389.2,3.8 143.8,51.8 270.3,93.9 279.9,95.8 11.5,1.9 23,-128.4 28.8,-345.1 7.7,-312.5 13.4,-352.7 49.8,-400.6 67.1,-92 134.2,-128.4 245.4,-138 88.2,-7.7 118.9,0 191.7,42.2 128.4,74.8 164.9,166.8 164.9,412.2 v 195.5 l 47.9,-34.5 46,-34.5 1.9,-571.3 c 0,-469.7 5.7,-582.8 28.8,-642.2 61.4,-143.8 172.5,-220.5 325.9,-220.5 105.4,0 187.9,34.5 251.1,105.4 95.9,103.5 93.9,78.6 103.5,1154.1 l 9.6,1014.1 2933.1,1042.9 c 2014.8,717 2942.7,1056.3 2967.6,1083.1 17.3,21.1 32.6,55.6 32.6,76.7 0,65.2 -209,569.4 -383.4,925.9 -995,2034 -2791.2,3604 -4934.5,4311.4 -145.7,49.8 -264.6,88.2 -266.5,86.3 -2,0.1 -21.2,-7.5 -42.2,-17.1 z m 448.5,-396.9 c 1092.7,-393 2072.3,-1012.2 2923.5,-1844.2 678.6,-665.2 1190.5,-1364.9 1600.7,-2185.4 124.6,-247.3 347,-753.4 347,-787.9 0,-13.4 -327.8,-136.1 -379.6,-141.9 -13.4,0 -47.9,67.1 -80.5,161 -134.2,385.3 -494.6,1016 -820.5,1437.8 -515.6,665.3 -1230.7,1366.9 -1901.6,1863.4 -640.3,473.5 -1315.1,860.8 -1917,1098.5 -99.7,38.3 -189.8,78.6 -197.5,86.3 -9.6,7.7 5.7,92 34.5,184 26.8,93.9 55.6,185.9 59.4,205.1 11.5,40.3 0,42.2 331.6,-76.7 z M 3558.7,3956 C 4454,3595.6 5477.7,2920.8 6259.8,2177 l 172.5,-163 -126.5,-1.9 c -364.2,-1.9 -682.5,-237.7 -787.9,-580.9 -143.8,-475.4 164.9,-968.1 663.3,-1054.4 253,-42.2 511.8,44.1 703.5,233.9 128.4,128.4 199.4,274.1 233.9,469.7 l 23,143.8 51.8,-63.3 C 7417.7,879.1 7688,457.3 7847.1,141 c 101.6,-205.1 253.1,-578.9 237.7,-594.3 -9.6,-11.5 -1514.5,-546.4 -1516.4,-540.6 -1.9,3.8 -32.6,67.1 -69,139.9 -132.3,268.4 -423.7,492.7 -726.6,557.9 -161,32.6 -264.5,32.6 -433.2,-1.9 -396.8,-84.4 -720.8,-389.2 -824.3,-776.4 -36.4,-134.2 -36.4,-400.7 0,-536.8 15.3,-57.5 24.9,-105.4 23,-107.4 -5.8,-5.7 -1414.8,-506.1 -1424.4,-506.1 -3.8,0 -7.7,170.6 -7.7,381.5 0,354.6 -1.9,383.4 -40.3,431.3 -47.9,61.3 -134.2,67.1 -189.8,11.5 -38.3,-38.3 -38.3,-63.3 -38.3,-1550.9 0,-1349.6 -3.8,-1516.4 -30.7,-1543.2 -34.5,-36.4 -53.7,-38.3 -105.4,-11.5 -34.5,19.2 -36.4,47.9 -36.4,663.3 v 642.2 l -47.9,46 c -24.9,26.8 -63.3,47.9 -86.3,47.9 -36.4,0 -38.3,11.5 -38.3,262.6 0,216.6 -5.7,268.4 -32.6,297.1 -40.2,46 -132.3,44.1 -258.8,-3.8 -174.4,-67.1 -168.7,-49.8 -168.7,-605.8 0,-460.1 -1.9,-486.9 -36.4,-506.1 -28.8,-13.4 -44.1,-11.5 -67.1,11.5 -26.8,24.9 -30.7,93.9 -30.7,446.7 0,552.1 3.8,548.3 -383.4,406.4 -118.9,-42.2 -222.4,-74.8 -226.2,-69 -5.8,5.7 57.5,233.9 139.9,509.9 141.9,467.8 153.4,498.4 189.8,486.9 23,-7.7 92,-17.3 157.2,-23 93.9,-7.7 132.3,-1.9 195.5,30.7 172.5,88.2 243.5,312.5 157.2,492.7 -49.8,99.7 -184,199.4 -272.2,199.4 -30.7,0 -53.7,11.5 -53.7,24.9 -1.9,57.7 1543.3,5170.5 1562.4,5170.5 11.5,0 97.8,-30.7 193.7,-69 z M 6480.2,1722.6 c 111.2,-34.5 249.2,-149.5 312.5,-262.6 195.5,-348.9 -38.3,-791.8 -437.1,-822.4 -139.9,-11.5 -239.6,13.4 -358.5,88.2 -299.1,189.8 -337.4,626.9 -78.6,866.5 46,42.2 120.8,93.9 164.9,115 92,40.2 285.7,47.9 396.8,15.3 z M 5788.2,-666 c 116.9,-38.3 208.9,-99.7 293.3,-193.6 84.3,-93.9 159.1,-232 136.1,-255 C 6202.3,-1130 4914,-1592 4885.3,-1592 c -30.7,0 -57.5,168.7 -47.9,301 34.4,471.6 498.4,776.4 950.8,625 z"
         id="path4"
         style="fill:#ffd5d5" /><path
         d="m 3901.8,2685 c -391.1,-95.9 -615.4,-720.8 -450.5,-1257.6 49.8,-162.9 95.8,-241.6 199.4,-350.8 109.3,-115 207,-162.9 339.3,-162.9 195.5,0 379.6,134.2 481.2,352.7 l 44.1,92 347,1.9 c 322.1,0 350.8,3.8 398.8,40.3 l 49.8,38.3 v 362.3 362.3 l -49.8,38.3 c -47.9,36.4 -76.7,40.3 -398.8,40.3 l -347,1.9 -46,99.7 c -69,147.6 -222.4,291.4 -347,327.8 -111.2,32.6 -132.3,34.6 -220.5,13.5 z m 195.6,-287.6 c 65.2,-40.3 139.9,-155.3 187.9,-287.6 46,-132.3 53.7,-134.2 427.5,-136.1 h 329.7 v -172.5 -172.5 h -327.8 c -180.2,0 -343.1,-7.7 -362.3,-19.2 -19.2,-9.6 -49.8,-61.3 -65.2,-111.2 -72.9,-218.5 -209,-350.8 -329.7,-322.1 -78.6,21.1 -189.8,145.7 -239.6,274.1 -38.3,95.9 -44.1,145.7 -44.1,350.8 0,270.3 32.6,387.2 143.8,523.3 93.8,115.2 176.2,136.3 279.8,73 z"
         id="path6"
         style="fill:#ffd5d5" /><path
         d="m 4685.9,957.7 c -61.3,-24.9 -103.5,-95.8 -103.5,-174.5 0,-55.6 13.4,-82.4 59.4,-120.8 32.6,-28.8 82.4,-49.8 113.1,-49.8 30.7,0 80.5,21.1 113.1,49.8 147.6,124.7 -3.8,372 -182.1,295.3 z"
         id="path8"
         style="fill:#ffd5d5" /><path
         d="m 3127.3,374.9 c -128.4,-42.2 -278,-155.3 -354.7,-266.5 -239.6,-354.7 -115,-822.4 272.2,-1014.1 76.7,-38.3 120.8,-44.1 291.4,-44.1 180.2,0 210.9,5.8 297.1,51.8 519.7,272.2 504.3,995 -24.8,1238.4 -132.3,59.5 -352.7,74.8 -481.2,34.5 z M 3529.9,89.3 c 103.5,-55.6 201.3,-193.6 220.5,-312.5 40.3,-272.2 -209,-517.6 -483.1,-475.4 -324,47.9 -467.8,463.9 -241.5,705.5 120.7,128.4 345,164.8 504.1,82.4 z"
         id="path10"
         style="fill:#ffd5d5" /><path
         d="m 7358.2,39.4 c -57.5,-51.8 -63.3,-67.1 -63.3,-164.9 0,-97.8 5.8,-113.1 63.3,-164.9 49.9,-44.1 80.5,-55.6 149.5,-55.6 74.8,0 97.8,9.6 153.4,65.2 55.6,55.6 65.2,78.6 65.2,155.3 0,76.7 -9.6,99.7 -65.2,155.3 -55.6,55.6 -78.6,65.2 -153.4,65.2 -68.9,0 -99.6,-11.5 -149.5,-55.6 z"
         id="path12"
         style="fill:#ffd5d5" /><path
         d="m 3378.5,-1616.9 c -126.5,-134.2 63.3,-324 209,-207.1 55.6,44.1 59.4,155.3 7.7,212.8 -50,55.7 -163.1,51.8 -216.7,-5.7 z"
         id="path14"
         style="fill:#ffd5d5" /></g></g></svg>
