<?xml version="1.0" encoding="UTF-8" standalone="no"?>
<!-- Svg Vector Icons : http://www.onlinewebfonts.com/icon -->

<svg
   version="1.1"
   x="0px"
   y="0px"
   viewBox="0 0 1000 1000"
   enable-background="new 0 0 1000 1000"
   xml:space="preserve"
   id="svg20"
   sodipodi:docname="47525538b70feca12a7ee05adf62593a.svg"
   inkscape:version="1.2.1 (9c6d41e410, 2022-07-14)"
   xmlns:inkscape="http://www.inkscape.org/namespaces/inkscape"
   xmlns:sodipodi="http://sodipodi.sourceforge.net/DTD/sodipodi-0.dtd"
   xmlns="http://www.w3.org/2000/svg"
   xmlns:svg="http://www.w3.org/2000/svg"><defs
   id="defs24" /><sodipodi:namedview
   id="namedview22"
   pagecolor="#ffffff"
   bordercolor="#000000"
   borderopacity="0.25"
   inkscape:showpageshadow="2"
   inkscape:pageopacity="0.0"
   inkscape:pagecheckerboard="0"
   inkscape:deskcolor="#d1d1d1"
   showgrid="false"
   inkscape:zoom="0.837"
   inkscape:cx="499.40263"
   inkscape:cy="499.40263"
   inkscape:window-width="1920"
   inkscape:window-height="1017"
   inkscape:window-x="-8"
   inkscape:window-y="-8"
   inkscape:window-maximized="1"
   inkscape:current-layer="svg20" />
<metadata
   id="metadata2"> Svg Vector Icons : http://www.onlinewebfonts.com/icon </metadata>
<g
   id="g18"
   style="fill:#ffd5d5"><g
     transform="translate(0.000000,512.000000) scale(0.100000,-0.100000)"
     id="g16"
     style="fill:#ffd5d5"><path
       d="M3422.6,5002.7c-23-7.7-49.8-26.8-59.4-40.3c-11.5-15.3-563.6-1832.7-1225-4041.1C1156.6-2354.9,938.1-3102.6,951.5-3142.9c34.5-97.8,99.7-97.8,389.2,3.8c143.8,51.8,270.3,93.9,279.9,95.8c11.5,1.9,23-128.4,28.8-345.1c7.7-312.5,13.4-352.7,49.8-400.6c67.1-92,134.2-128.4,245.4-138c88.2-7.7,118.9,0,191.7,42.2c128.4,74.8,164.9,166.8,164.9,412.2v195.5l47.9-34.5l46-34.5l1.9-571.3c0-469.7,5.7-582.8,28.8-642.2c61.4-143.8,172.5-220.5,325.9-220.5c105.4,0,187.9,34.5,251.1,105.4c95.9,103.5,93.9,78.6,103.5,1154.1l9.6,1014.1l2933.1,1042.9c2014.8,717,2942.7,1056.3,2967.6,1083.1c17.3,21.1,32.6,55.6,32.6,76.7c0,65.2-209,569.4-383.4,925.9c-995,2034-2791.2,3604-4934.5,4311.4c-145.7,49.8-264.6,88.2-266.5,86.3C3462.8,5019.9,3443.6,5012.3,3422.6,5002.7z M3871.1,4605.8c1092.7-393,2072.3-1012.2,2923.5-1844.2c678.6-665.2,1190.5-1364.9,1600.7-2185.4c124.6-247.3,347-753.4,347-787.9c0-13.4-327.8-136.1-379.6-141.9c-13.4,0-47.9,67.1-80.5,161c-134.2,385.3-494.6,1016-820.5,1437.8C6946.1,1910.5,6231,2612.1,5560.1,3108.6c-640.3,473.5-1315.1,860.8-1917,1098.5c-99.7,38.3-189.8,78.6-197.5,86.3c-9.6,7.7,5.7,92,34.5,184c26.8,93.9,55.6,185.9,59.4,205.1C3551,4722.8,3539.5,4724.7,3871.1,4605.8z M3558.7,3956c895.3-360.4,1919-1035.2,2701.1-1779l172.5-163l-126.5-1.9c-364.2-1.9-682.5-237.7-787.9-580.9c-143.8-475.4,164.9-968.1,663.3-1054.4c253-42.2,511.8,44.1,703.5,233.9c128.4,128.4,199.4,274.1,233.9,469.7l23,143.8l51.8-63.3c224.3-281.8,494.6-703.6,653.7-1019.9c101.6-205.1,253.1-578.9,237.7-594.3c-9.6-11.5-1514.5-546.4-1516.4-540.6c-1.9,3.8-32.6,67.1-69,139.9c-132.3,268.4-423.7,492.7-726.6,557.9c-161,32.6-264.5,32.6-433.2-1.9c-396.8-84.4-720.8-389.2-824.3-776.4c-36.4-134.2-36.4-400.7,0-536.8c15.3-57.5,24.9-105.4,23-107.4c-5.8-5.7-1414.8-506.1-1424.4-506.1c-3.8,0-7.7,170.6-7.7,381.5c0,354.6-1.9,383.4-40.3,431.3c-47.9,61.3-134.2,67.1-189.8,11.5c-38.3-38.3-38.3-63.3-38.3-1550.9c0-1349.6-3.8-1516.4-30.7-1543.2c-34.5-36.4-53.7-38.3-105.4-11.5c-34.5,19.2-36.4,47.9-36.4,663.3v642.2l-47.9,46c-24.9,26.8-63.3,47.9-86.3,47.9c-36.4,0-38.3,11.5-38.3,262.6c0,216.6-5.7,268.4-32.6,297.1c-40.2,46-132.3,44.1-258.8-3.8c-174.4-67.1-168.7-49.8-168.7-605.8c0-460.1-1.9-486.9-36.4-506.1c-28.8-13.4-44.1-11.5-67.1,11.5c-26.8,24.9-30.7,93.9-30.7,446.7c0,552.1,3.8,548.3-383.4,406.4c-118.9-42.2-222.4-74.8-226.2-69c-5.8,5.7,57.5,233.9,139.9,509.9c141.9,467.8,153.4,498.4,189.8,486.9c23-7.7,92-17.3,157.2-23c93.9-7.7,132.3-1.9,195.5,30.7c172.5,88.2,243.5,312.5,157.2,492.7c-49.8,99.7-184,199.4-272.2,199.4c-30.7,0-53.7,11.5-53.7,24.9C1800.7-1087.8,3345.9,4025,3365,4025C3376.5,4025,3462.8,3994.3,3558.7,3956z M6480.2,1722.6c111.2-34.5,249.2-149.5,312.5-262.6c195.5-348.9-38.3-791.8-437.1-822.4c-139.9-11.5-239.6,13.4-358.5,88.2c-299.1,189.8-337.4,626.9-78.6,866.5c46,42.2,120.8,93.9,164.9,115C6175.4,1747.5,6369.1,1755.2,6480.2,1722.6z M5788.2-666c116.9-38.3,208.9-99.7,293.3-193.6c84.3-93.9,159.1-232,136.1-255C6202.3-1130,4914-1592,4885.3-1592c-30.7,0-57.5,168.7-47.9,301C4871.8-819.4,5335.8-514.6,5788.2-666z"
       id="path4"
       style="fill:#ffd5d5" /><path
       d="M3901.8,2685c-391.1-95.9-615.4-720.8-450.5-1257.6c49.8-162.9,95.8-241.6,199.4-350.8c109.3-115,207-162.9,339.3-162.9c195.5,0,379.6,134.2,481.2,352.7l44.1,92l347,1.9c322.1,0,350.8,3.8,398.8,40.3l49.8,38.3v362.3v362.3l-49.8,38.3c-47.9,36.4-76.7,40.3-398.8,40.3l-347,1.9l-46,99.7c-69,147.6-222.4,291.4-347,327.8C4011.1,2704.1,3990,2706.1,3901.8,2685z M4097.4,2397.4c65.2-40.3,139.9-155.3,187.9-287.6c46-132.3,53.7-134.2,427.5-136.1h329.7v-172.5v-172.5h-327.8c-180.2,0-343.1-7.7-362.3-19.2c-19.2-9.6-49.8-61.3-65.2-111.2c-72.9-218.5-209-350.8-329.7-322.1c-78.6,21.1-189.8,145.7-239.6,274.1c-38.3,95.9-44.1,145.7-44.1,350.8c0,270.3,32.6,387.2,143.8,523.3C3911.4,2439.6,3993.8,2460.7,4097.4,2397.4z"
       id="path6"
       style="fill:#ffd5d5" /><path
       d="M4685.9,957.7c-61.3-24.9-103.5-95.8-103.5-174.5c0-55.6,13.4-82.4,59.4-120.8c32.6-28.8,82.4-49.8,113.1-49.8c30.7,0,80.5,21.1,113.1,49.8C5015.6,787.1,4864.2,1034.4,4685.9,957.7z"
       id="path8"
       style="fill:#ffd5d5" /><path
       d="M3127.3,374.9c-128.4-42.2-278-155.3-354.7-266.5c-239.6-354.7-115-822.4,272.2-1014.1c76.7-38.3,120.8-44.1,291.4-44.1c180.2,0,210.9,5.8,297.1,51.8C4153-625.8,4137.6,97,3608.5,340.4C3476.2,399.9,3255.8,415.2,3127.3,374.9z M3529.9,89.3c103.5-55.6,201.3-193.6,220.5-312.5c40.3-272.2-209-517.6-483.1-475.4c-324,47.9-467.8,463.9-241.5,705.5C3146.5,135.3,3370.8,171.7,3529.9,89.3z"
       id="path10"
       style="fill:#ffd5d5" /><path
       d="M7358.2,39.4c-57.5-51.8-63.3-67.1-63.3-164.9c0-97.8,5.8-113.1,63.3-164.9c49.9-44.1,80.5-55.6,149.5-55.6c74.8,0,97.8,9.6,153.4,65.2c55.6,55.6,65.2,78.6,65.2,155.3c0,76.7-9.6,99.7-65.2,155.3c-55.6,55.6-78.6,65.2-153.4,65.2C7438.8,95,7408.1,83.5,7358.2,39.4z"
       id="path12"
       style="fill:#ffd5d5" /><path
       d="M3378.5-1616.9c-126.5-134.2,63.3-324,209-207.1c55.6,44.1,59.4,155.3,7.7,212.8C3545.2-1555.5,3432.1-1559.4,3378.5-1616.9z"
       id="path14"
       style="fill:#ffd5d5" /></g></g>
</svg>
