<svg id="visual" viewBox="0 0 960 540" width="960" height="540" xmlns="http://www.w3.org/2000/svg" xmlns:xlink="http://www.w3.org/1999/xlink" version="1.1"><rect x="0" y="0" width="960" height="540" fill="#FFFFFF"></rect><path d="M0 384L22.8 377.3C45.7 370.7 91.3 357.3 137 334.3C182.7 311.3 228.3 278.7 274 285.5C319.7 292.3 365.3 338.7 411.2 345.2C457 351.7 503 318.3 548.8 321.7C594.7 325 640.3 365 686 365.2C731.7 365.3 777.3 325.7 823 319.5C868.7 313.3 914.3 340.7 937.2 354.3L960 368L960 541L937.2 541C914.3 541 868.7 541 823 541C777.3 541 731.7 541 686 541C640.3 541 594.7 541 548.8 541C503 541 457 541 411.2 541C365.3 541 319.7 541 274 541C228.3 541 182.7 541 137 541C91.3 541 45.7 541 22.8 541L0 541Z" fill="#BDA581" stroke-linecap="round" stroke-linejoin="miter"></path></svg>